REM DIRINDEX 1\2,1\3,1\4,1\5
REM DIRNAME cjc004,folder01,folder02,folder03,folder04
TITLE ""
FILE "1Q_t_1789-1798.mp3" MP3
  TRACK 01 AUDIO
    TITLE "3:cjc004_6274"
    INDEX 01 00:00:00
  TRACK 02 AUDIO
    TITLE "0:"
    INDEX 01 00:01:03
  TRACK 03 AUDIO
    TITLE "4:cjc004_6275"
    INDEX 01 00:01:34
  TRACK 04 AUDIO
    TITLE "0:"
    INDEX 01 00:02:36
  TRACK 05 AUDIO
    TITLE "5:cjc004_6276"
    INDEX 01 00:02:59
  TRACK 06 AUDIO
    TITLE "0:"
    INDEX 01 00:09:63
  TRACK 07 AUDIO
    TITLE "3:cjc004_6277"
    INDEX 01 00:10:39
  TRACK 08 AUDIO
    TITLE "0:"
    INDEX 01 00:11:56
  TRACK 09 AUDIO
    TITLE "4:cjc004_6278"
    INDEX 01 00:12:09
  TRACK 10 AUDIO
    TITLE "0:"
    INDEX 01 00:13:18
  TRACK 11 AUDIO
    TITLE "5:cjc004_6279"
    INDEX 01 00:13:45
  TRACK 12 AUDIO
    TITLE "0:"
    INDEX 01 00:19:01
  TRACK 13 AUDIO
    TITLE "3:cjc004_6280"
    INDEX 01 00:19:50
  TRACK 14 AUDIO
    TITLE "0:"
    INDEX 01 00:20:55
  TRACK 15 AUDIO
    TITLE "4:cjc004_6281"
    INDEX 01 00:21:04
  TRACK 16 AUDIO
    TITLE "0:"
    INDEX 01 00:21:66
  TRACK 17 AUDIO
    TITLE "5:cjc004_6282"
    INDEX 01 00:22:11
  TRACK 18 AUDIO
    TITLE "0:"
    INDEX 01 00:26:69
  TRACK 19 AUDIO
    TITLE "3:cjc004_6283"
    INDEX 01 00:27:45
  TRACK 20 AUDIO
    TITLE "0:"
    INDEX 01 00:28:55
  TRACK 21 AUDIO
    TITLE "4:cjc004_6284"
    INDEX 01 00:29:05
  TRACK 22 AUDIO
    TITLE "0:"
    INDEX 01 00:30:42
  TRACK 23 AUDIO
    TITLE "5:cjc004_6285"
    INDEX 01 00:30:65
  TRACK 24 AUDIO
    TITLE "0:"
    INDEX 01 00:37:36
  TRACK 25 AUDIO
    TITLE "3:cjc004_6286"
    INDEX 01 00:38:20
  TRACK 26 AUDIO
    TITLE "0:"
    INDEX 01 00:39:27
  TRACK 27 AUDIO
    TITLE "4:cjc004_6287"
    INDEX 01 00:39:58
  TRACK 28 AUDIO
    TITLE "0:"
    INDEX 01 00:40:66
  TRACK 29 AUDIO
    TITLE "5:cjc004_6288"
    INDEX 01 00:41:16
  TRACK 30 AUDIO
    TITLE "0:"
    INDEX 01 00:45:37
  TRACK 31 AUDIO
    TITLE "3:cjc004_6289"
    INDEX 01 00:46:15
  TRACK 32 AUDIO
    TITLE "0:"
    INDEX 01 00:47:27
  TRACK 33 AUDIO
    TITLE "4:cjc004_6290"
    INDEX 01 00:47:54
  TRACK 34 AUDIO
    TITLE "0:"
    INDEX 01 00:48:53
  TRACK 35 AUDIO
    TITLE "5:cjc004_6291"
    INDEX 01 00:49:02
  TRACK 36 AUDIO
    TITLE "0:"
    INDEX 01 00:53:09
  TRACK 37 AUDIO
    TITLE "3:cjc004_6292"
    INDEX 01 00:53:58
  TRACK 38 AUDIO
    TITLE "0:"
    INDEX 01 00:54:72
  TRACK 39 AUDIO
    TITLE "4:cjc004_6293"
    INDEX 01 00:55:26
  TRACK 40 AUDIO
    TITLE "0:"
    INDEX 01 00:56:37
  TRACK 41 AUDIO
    TITLE "5:cjc004_6294"
    INDEX 01 00:56:61
  TRACK 42 AUDIO
    TITLE "0:"
    INDEX 01 01:02:48
  TRACK 43 AUDIO
    TITLE "3:cjc004_6295"
    INDEX 01 01:03:29
  TRACK 44 AUDIO
    TITLE "0:"
    INDEX 01 01:04:37
  TRACK 45 AUDIO
    TITLE "4:cjc004_6296"
    INDEX 01 01:04:66
  TRACK 46 AUDIO
    TITLE "0:"
    INDEX 01 01:05:64
  TRACK 47 AUDIO
    TITLE "5:cjc004_6297"
    INDEX 01 01:06:18
  TRACK 48 AUDIO
    TITLE "0:"
    INDEX 01 01:12:09
  TRACK 49 AUDIO
    TITLE "3:cjc004_6298"
    INDEX 01 01:12:60
  TRACK 50 AUDIO
    TITLE "0:"
    INDEX 01 01:13:61
  TRACK 51 AUDIO
    TITLE "4:cjc004_6299"
    INDEX 01 01:14:16
  TRACK 52 AUDIO
    TITLE "0:"
    INDEX 01 01:15:33
  TRACK 53 AUDIO
    TITLE "5:cjc004_6300"
    INDEX 01 01:15:54
  TRACK 54 AUDIO
    TITLE "0:"
    INDEX 01 01:19:07
  TRACK 55 AUDIO
    TITLE "3:cjc004_6301"
    INDEX 01 01:19:54
  TRACK 56 AUDIO
    TITLE "0:"
    INDEX 01 01:20:55
  TRACK 57 AUDIO
    TITLE "4:cjc004_6302"
    INDEX 01 01:21:12
  TRACK 58 AUDIO
    TITLE "0:"
    INDEX 01 01:22:21
  TRACK 59 AUDIO
    TITLE "5:cjc004_6303"
    INDEX 01 01:22:48
  TRACK 60 AUDIO
    TITLE "0:"
    INDEX 01 01:26:29
